<svg height="54" viewBox="0 0 124 54" width="124" xmlns="http://www.w3.org/2000/svg" xmlns:xlink="http://www.w3.org/1999/xlink"><linearGradient id="a"><stop offset="0" stop-color="#f15a24"/><stop offset=".9984" stop-color="#fbb03b"/></linearGradient><linearGradient id="b" x1="19.728728%" x2="52.571905%" xlink:href="#a" y1="109.381568%" y2="27.736272%"/><linearGradient id="c"><stop offset="0" stop-color="#006837"/><stop offset="1" stop-color="#0b723c"/></linearGradient><linearGradient id="d" x1=".028731%" x2="100.031545%" xlink:href="#c" y1="50.013562%" y2="50.013562%"/><linearGradient id="e" x1="-.073455%" x2="99.988748%" xlink:href="#c" y1="49.951939%" y2="49.951939%"/><linearGradient id="f" x1=".273166%" x2="89.786697%" xlink:href="#a" y1="98.456287%" y2="31.922196%"/><linearGradient id="g" x1="33.770717%" x2="66.656702%" y1="96.634274%" y2="2.127561%"><stop offset="0" stop-color="#651297"/><stop offset=".9977" stop-color="#441464"/></linearGradient><linearGradient id="h" x1="22.382539%" x2="80.318366%" y1="73.838438%" y2="22.86591%"><stop offset="0" stop-color="#006837"/><stop offset=".974" stop-color="#4db25b"/></linearGradient><g fill="none" fill-rule="evenodd"><g transform="translate(68.344883)"><path d="m35.7611604 19.454039-1.8634972 3.2440111c.2398066.2757661.4596293.5665739.6444802.8874652l6.2899275 10.9353761c.0899275.1554317.1598711.3158774.2298147.4713092h.2348106c2.0233683 0 3.8918614-1.0830084 4.9010476-2.842897l3.9268332-6.8239554c1.0091861-1.7598886 1.0091861-3.9259053 0-5.68078l-3.9268332-6.8239554c-1.0091862-1.7598886-2.8776793-2.84289692-4.9010476-2.84289692h-7.7187752l2.1832394 3.79554322c1.0091861 1.7548746 1.0091861 3.9208913 0 5.6807799z"/><path d="m22.0672039 29.1208914-2.1832394-3.7955432c-.0899274-.1554318-.159871-.3158774-.2298146-.4713092h-.2348107c-2.0233682 0-3.8918614 1.0830084-4.9010475 2.8428969l-.7943594 1.383844c.2098308.0250697.4196616.0401115.6294924.0401115z"/><path d="m28.5419823 12.8206128-3.9268332 6.8239554c-.1998389.350975-.354714.7220056-.4746173 1.0980502h5.4955681c.2098308 0 .4196616.0200557.6294924.0401114l.7643835-1.3286908c1.0091862-1.7598886 1.0091862-3.9259053 0-5.6807799l-1.3489121-2.3415042c-.4396455.3910863-.8343272.8523677-1.1390814 1.3888579z"/><path d="m32.1740532 27.691922c-.1848509-.3208914-.4096696-.6116992-.6444803-.8874652l-2.05834 3.5799443c-.3047543.5314763-.699436.9927577-1.1390814 1.388858l.2148267.3710306c1.0091862 1.7598886 2.8826753 2.8428969 4.9010476 2.8428969h2.8926672c-.0749396-.1604457-.1448832-.3208913-.2298147-.4713092z"/><path d="m26.178888 36.2607242-1.7435939-3.0284122h-12.4499597c-.2098308 0-.4196616-.0200557-.6294923-.0401114l-.7643836 1.3286908c-1.00918614 1.7598885-1.00918614 3.9259053 0 5.6807799l3.9268332 6.8239554c1.0091861 1.7598886 2.8826753 2.842897 4.9010475 2.842897h7.8536664c2.0233683 0 3.8918614-1.0830084 4.9010476-2.842897l3.9268332-6.8239554c.1998388-.3509749.3547139-.7220056.4746172-1.0980501h-5.4955681c-2.0233682-.005014-3.8918614-1.0880223-4.9010475-2.842897z"/><path d="m25.9640612 27.6668524c.4446415-.3961003.8343272-.8573816 1.1440774-1.388858l.7943594-1.383844c-.2098308-.0250696-.4146656-.0401114-.6294924-.0401114h-2.8926672c.0749396.1604457.1448832.3208914.2298147.4713092z"/><path d="m17.056245 20.7426184h2.3580983c.1199033-.3760446.2697824-.7470752.4746172-1.0980502l6.2899275-10.935376c.3047542-.53147632.6994359-.99275766 1.1390814-1.38885794l-.2148268-.37103064c-1.0091861-1.75988858-2.8776793-2.84289693-4.9010475-2.84289693h-7.8536664c-2.0233683 0-3.8918614 1.08300835-4.90104756 2.84289693l-3.92683319 6.82395548c-1.00918615 1.7598885-1.00918615 3.9259052 0 5.6807799l3.92683319 6.8239554c.18485093.3208914.40467365.6116992.64448026.8874652l2.0583401-3.5799443c1.0141821-1.7598886 2.8826752-2.8428969 4.9060435-2.8428969z"/><g fill-rule="nonzero"><path d="m9.44738114 26.2779944-3.92683319-6.8239554c-1.00918615-1.7598886-1.00918615-3.9259053 0-5.6807799l3.92683319-6.82395548c1.00918616-1.75988858 2.87767926-2.84289693 4.90104756-2.84289693h7.8536664c2.0233682 0 3.8918614 1.08300835 4.9010475 2.84289693l.2148268.37103064c1.024174-.91253482 2.3531023-1.44902507 3.7619661-1.44902507h.1348913l-1.7435939-3.02841225c-1.0091862-1.75988858-2.8826753-2.84289694-4.9010476-2.84289694h-12.5798549c-2.02336827 0-3.89186142 1.08300836-4.90104756 2.84289694l-6.28992748 10.93537606c-1.00918614 1.7598886-1.00918614 3.9259053 0 5.6807799l6.28992748 10.9353761c.18485092.3208913.40467365.6116991.64448025.8874652l2.36309431-4.1114207c-.23980663-.2807799-.46462533-.5715877-.64947626-.8924791z" fill="url(#b)"/><path d="m28.5419823 32.1493036-.2148268-.3710306c-1.024174.9125348-2.3531023 1.4490251-3.7619661 1.4490251h-.1348913l1.7435939 3.0284122c1.0091862 1.7598886 2.8826753 2.8428969 4.9010476 2.8428969h5.4955681c.4346494-1.3437325.3547139-2.8128133-.2398067-4.1114206h-2.8926672c-2.0183722.005014-3.8868654-1.0779944-4.8960515-2.837883z" fill="url(#d)"/><path d="m25.9640612 27.6668524-1.3489121-2.3415042c-.0899275-.1554318-.1598711-.3158774-.2298147-.4713092h-4.7261885c.0749395.1604457.1448831.3208914.2298146.4713092l2.1832393 3.7955432h.1348913c1.4038678 0 2.7327961-.5364903 3.7569701-1.454039z" fill="url(#e)"/><path d="m35.7611604 13.7732591-2.1832394-3.79554322-2.3630942-4.11142062h-.1348913c-1.4088638 0-2.7377921.53649026-3.7619661 1.44902507l2.3630943 4.11142057 1.3489121 2.3415042c1.0091862 1.7598886 1.0091862 3.9259053 0 5.68078l-.7643835 1.3286908-2.3630943 4.1114206-.7943594 1.383844c-.3047542.5314763-.6994359.9927577-1.1440774 1.3888579-1.024174.9125349-2.3481063 1.4490251-3.7619661 1.4490251h-.1348912-7.7187752c-.2098308 0-.4196616-.0200557-.6294924-.0401114l-2.3630942 4.1114206c.2098307.0250696.4196615.0401114.6294923.0401114h12.4499597.1348912c1.4088639 0 2.7377921-.5364902 3.7619662-1.449025.4446414-.3961003.8343271-.8573817 1.1440773-1.388858l2.0583401-3.5799443 2.3630943-4.1114206 1.8634972-3.2440111c1.0091861-1.7548747 1.0091861-3.9208914 0-5.675766z" fill="url(#f)"/><path d="m41.0618856 34.9922006c-.0749396-.1604457-.1448832-.3208914-.2298147-.4713092l-6.2899275-10.9353761c-.1848509-.3208913-.4096696-.6116991-.6444802-.8874652l-2.3630943 4.1114207c.2398066.275766.4596293.5665738.6444803.8874651l3.9268332 6.8239555c.0899274.1554317.159871.3158774.2298146.4713092.5945206 1.2986072.6744561 2.7626741.2398066 4.1114206-.1199033.3760445-.2697824.7470752-.4746172 1.0980501l-3.9268332 6.8239554c-1.0091862 1.7598886-2.8776793 2.842897-4.9010476 2.842897h-7.8536664c-2.0233682 0-3.8918614-1.0830084-4.9010475-2.842897l-3.9268332-6.8289693c-1.00918614-1.7598886-1.00918614-3.9259053 0-5.68078l.7643836-1.3286908 2.3630942-4.1114206.7943594-1.383844c1.0091862-1.7598886 2.8776793-2.8428969 4.9010476-2.8428969h.2348106 4.7261886 2.8926672c.2098308 0 .4196615.0200557.6294923.0401114l2.3630943-4.1114206c-.2098308-.0250697-.4196616-.0401114-.6294924-.0401114h-5.495568-4.7261886-2.3580983c-2.0233683 0-3.8918614 1.0830083-4.9010475 2.8428969l-2.0583401 3.5799443-2.36309428 4.1114206-1.86349718 3.2440111c-1.00918614 1.7598886-1.00918614 3.9259053 0 5.68078l6.28992746 10.935376c1.0091862 1.7598886 2.8776793 2.842897 4.9010476 2.842897h12.5798549c2.0233683 0 3.8918614-1.0830084 4.9010476-2.842897l6.2899274-10.935376c.1998389-.3509749.349718-.7220056.4746173-1.0980502.4346495-1.3437325.3547139-2.8077994-.2398066-4.1064066zm-21.7874295-13.7431755c-.0749396.340947-.1199033.691922-.1348912 1.037883.0149879-.345961.0599516-.691922.1348912-1.037883z" fill="url(#g)"/><path d="m54.8557615 19.6445682-6.2899275-10.935376c-1.0091861-1.75988858-2.8826753-2.84289694-4.9010475-2.84289694h-12.4499597s-2.6178888-.17548746-3.8918614 1.44902507c-.4446415.39610028-.8343272.85738162-1.1390814 1.38885794l-6.2899275 10.93537603c-.1998389.3509749-.354714.7220056-.4746173 1.0980502h4.7261886c.1199033-.3760446.2697824-.7470753.4746172-1.0980502l3.9268332-6.8239554c.3047543-.5314763.699436-.9927577 1.1440774-1.388858 0 0 1.5987107-1.73983282 3.8918614-1.44902502h7.7187752c2.0233682 0 3.8918614 1.08300832 4.9010475 2.84289692l3.9268332 6.8239554c1.0091862 1.7598886 1.0091862 3.9259053 0 5.68078l-3.9268332 6.8239554c-1.0091861 1.7598886-2.8776793 2.842897-4.9010475 2.842897h-.2348107c.5945206 1.2986072.6744561 2.7626741.2398067 4.1114206h2.3580983c2.0233682 0 3.8918614-1.0830084 4.9010475-2.842897l6.2899275-10.935376c1.0091861-1.7598886 1.0091861-3.9259053 0-5.68078z" fill="url(#h)"/></g></g><g fill="#000" fill-rule="nonzero"><g transform="translate(0 8.573816)"><path d="m2.33311845 12.2590529c-.70942788-.2657381-1.20402901-.5465181-1.48879935-.8373259-.55455278-.5465181-.82933119-1.2083565-.82933119-1.9855153 0-.77715878.28976632-1.454039.86430298-2.0356546 1.12409348-1.15320334 2.59290895-1.72980501 4.40145045-1.72980501 1.95842063 0 3.63706688.78718663 5.03593876 2.36155989.1248993.15041783.1848509.33593315.174859.55153203 0 .26072424-.0899275.48133705-.2747784.66183844-.1848509.18551532-.40467367.27576602-.65946819.27576602-.2597905 0-.46462531-.08022284-.61950041-.24568245s-.26978243-.28077995-.33972602-.35097493c-.9142627-.91754875-2.01837228-1.37381616-3.31232877-1.37381616s-2.33311845.40612813-3.10249799 1.22339833c-.18984689.22562674-.27977437.49637883-.27977437.81225627.02497985.37103064.21482675.62172697.57453666.75208917l5.76035455 1.9153203c.70942789.2657382 1.20402901.5465181 1.48879936.8373259.55455278.5465181.82933118 1.2083565.82933118 1.9855153s-.2897663 1.454039-.86430298 2.0356546c-1.12409347 1.1532034-2.59290894 1.729805-4.40145044 1.729805-1.96841257 0-3.64705882-.7871866-5.03593876-2.3615599-.11490733-.1654596-.17485898-.3509749-.17485898-.551532 0-.2607242.08992747-.481337.2747784-.6618384.18485093-.1855153.40467365-.275766.65946817-.275766s.4646253.0802228.6195004.2456824.26978244.2807799.33972603.3509749c.91426269.9175488 2.01837228 1.3738162 3.31232877 1.3738162s2.33311845-.4061281 3.10249798-1.2233983c.1898469-.2256268.27977438-.4963789.27977438-.8122563-.02497986-.3710306-.21482675-.621727-.57453666-.7520891z"/><path d="m12.4249799.97270195c0-.26072423.0899274-.48133705.2747784-.66183844.1848509-.18551532.4046736-.27576602.6594681-.27576602.2597905 0 .4796132.0902507.6594682.27576602s.2747784.40612813.2747784.66183844v6.40779944c1.1690572-1.13816156 2.577921-1.70473537 4.2165995-1.70473537 1.6786463 0 3.1124899.59665738 4.306527 1.78997214 1.1890411 1.19331476 1.7835617 2.63732594 1.7835617 4.32200554v6.1119777c0 .2607243-.0899275.4813371-.2747784.6618385-.184851.1855153-.4046737.275766-.6594682.275766-.2597905 0-.4796132-.0902507-.6594682-.275766-.1848509-.1855153-.2747784-.4061281-.2747784-.6618385v-6.1119777c0-1.1682451-.4096696-2.16601668-1.2340048-2.99331473s-1.8185335-1.23844011-2.9825947-1.23844011-2.1582595.41114206-2.9825947 1.23844011-1.2340048 1.82506963-1.2340048 2.99331473v6.1119777c0 .2607243-.0899275.4813371-.2747784.6618385-.184851.1855153-.4046737.275766-.6594682.275766-.2597905 0-.4796132-.0902507-.6594682-.275766-.1848509-.1855153-.2747784-.4061281-.2747784-.6618385v-16.92701945z"/><path d="m36.6454472 15.643454c.2597905 0 .4796132.0902507.6594682.2757661.1848509.1855153.2747784.4061281.2747784.6618384 0 .2607242-.0899275.481337-.2697824.6718663-1.209025 1.0579387-2.6328768 1.589415-4.2765512 1.589415-1.8135375 0-3.3572925-.6417827-4.6362611-1.9253482-1.2789686-1.2835654-1.9184528-2.837883-1.9184528-4.6529247 0-1.8200558.6394842-3.36935938 1.9184528-4.65292484s2.8277196-1.92534819 4.6362611-1.92534819c1.8135375 0 3.3572925.64178273 4.6362611 1.92534819 1.2789685 1.28356546 1.9184528 2.83788304 1.9184528 4.65292484 0 .2607242-.0899274.481337-.2747784.6618384-.1848509.1855153-.4046736.275766-.6594681.275766h-10.2167607c.169863.902507.5995165 1.6947075 1.2889605 2.3866295.9142627.9175488 2.0183723 1.3738162 3.3123288 1.3738162 1.1690572 0 2.1782433-.3710306 3.0225624-1.1181059.174859-.135376.3697019-.2005571.5845286-.2005571zm.9991942-4.3270195c-.169863-.9025069-.5995165-1.69470748-1.2889605-2.38662949-.9142627-.91754874-2.0183723-1.37381615-3.3123288-1.37381615s-2.403062.45626741-3.3123287 1.37381615c-.689444.69192201-1.1190975 1.48412259-1.2889605 2.38662949z"/><path d="m51.6383562 15.643454c.2597905 0 .4796132.0902507.6594681.2757661.179855.1855153.2747784.4061281.2747784.6618384 0 .2607242-.0899274.481337-.2697824.6718663-1.209025 1.0579387-2.6328767 1.589415-4.2765512 1.589415-1.8135374 0-3.3572925-.6417827-4.636261-1.9253482-1.2789686-1.2835654-1.9184529-2.837883-1.9184529-4.6529247 0-1.8200558.6394843-3.36935938 1.9184529-4.65292484 1.2789685-1.28356546 2.8277195-1.92534819 4.636261-1.92534819 1.8135375 0 3.3572925.64178273 4.6362611 1.92534819s1.9184529 2.83788304 1.9184529 4.65292484c0 .2607242-.0899275.481337-.2747784.6618384-.184851.1855153-.4046737.275766-.6594682.275766h-10.2167607c.169863.902507.5995165 1.6947075 1.2889605 2.3866295.9142627.9175488 2.0183723 1.3738162 3.3123288 1.3738162 1.1690572 0 2.1782434-.3710306 3.0225625-1.1181059.169863-.135376.3647058-.2005571.5845286-.2005571zm.9941982-4.3270195c-.169863-.9025069-.5995165-1.69470748-1.2889605-2.38662949-.9142627-.91754874-2.0183723-1.37381615-3.3123288-1.37381615s-2.403062.45626741-3.3123288 1.37381615c-.689444.69192201-1.1190975 1.48412259-1.2889605 2.38662949z"/><path d="m56.4644641 6.6183844c0-.26072423.0899275-.48133705.2747784-.66183844.184851-.18551532.4046737-.27576602.6594682-.27576602s.4796132.0902507.6594682.27576602c.1848509.18551532.2747784.40612813.2747784.66183844v1.03286908c1.3139404-1.31866295 2.8726833-1.97548746 4.6862208-1.97548746.9142627 0 1.7535858.15543175 2.5179694.47130919.1398871.0551532.2697824.13537604.3846897.24568245.179855.19052925.2697825.41114206.2697825.6718663 0 .26072423-.0899275.48133704-.2747784.66183844-.184851.18551532-.4046737.27576601-.6594682.27576601-.1498791 0-.2847704-.03008356-.4096696-.09526462-.5545528-.2356546-1.1640613-.35097493-1.8285254-.35097493-1.2939565 0-2.4030621.45626741-3.3123288 1.37381615-.9142627.91754875-1.368896 2.02562679-1.368896 3.32423399v5.6456824c0 .2607243-.0899275.4813371-.2747784.6618385-.184851.1855153-.4046737.275766-.6594682.275766s-.4796132-.0902507-.6594682-.275766c-.1848509-.1855153-.2747784-.4061281-.2747784-.6618385v-11.281337z"/></g><g transform="translate(9.592264 25.520891)"><path d="m10.2117647 15.6183844c.2597905 0 .4796132.0902507.6594682.275766.1798549.1855153.2747784.4061282.2747784.6618385s-.0999194.4913649-.2947623.691922c-1.20902499 1.0579387-2.63287672 1.589415-4.27655118 1.589415-1.81353747 0-3.3572925-.6417827-4.63626108-1.9253482-1.27896857-1.2835654-1.91845286-2.837883-1.91845286-4.6529248 0-1.8200557.63948429-3.36935931 1.91845286-4.65292477 1.27896858-1.28356546 2.82771959-1.92534819 4.63626108-1.92534819 1.63867849 0 3.06253022.5264624 4.27655118 1.58941505.2198227.19554317.3297341.4362117.3297341.72701949 0 .26072424-.0899275.48133705-.2747784.66685237-.184851.18551532-.4046737.27576602-.6594682.27576602-.2248187 0-.42465753-.07019499-.59951652-.21058496-.87429492-.77715877-1.89846897-1.1632312-3.06752618-1.1632312-1.29395649 0-2.40306205.45626741-3.31232877 1.37381616-.91426269.91754875-1.36889605 2.02562673-1.36889605 3.32423403 0 1.2986072.45463336 2.4116991 1.36889605 3.3242339.91426269.9175488 2.01837228 1.3738162 3.31232877 1.3738162 1.16905721 0 2.18823529-.3860724 3.05753424-1.1532034.16486704-.1253481.35970991-.1905292.57453666-.1905292z"/><path d="m13.1394037.97270195c0-.26072423.0899275-.48133705.2747784-.66183844.1848509-.18551532.4046737-.27576602.6594682-.27576602.2597905 0 .4796132.0902507.6594682.27576602.1848509.18551532.2747784.40612813.2747784.66183844v6.40779944c1.1690572-1.13816156 2.577921-1.70473537 4.2165995-1.70473537 1.6786462 0 3.1124899.59665738 4.306527 1.78997214 1.1890411 1.19331476 1.7835616 2.63732594 1.7835616 4.32200554v6.1119777c0 .2607243-.0899275.4813371-.2747784.6618385-.1848509.1855153-.4046736.275766-.6594682.275766-.2547945 0-.4796132-.0902507-.6594681-.275766-.184851-.1855153-.2747784-.4061281-.2747784-.6618385v-6.1119777c0-1.1682451-.4096697-2.16601668-1.2340049-2.99331473s-1.8185334-1.23844011-2.9825947-1.23844011c-1.1640612 0-2.1582594.41114206-2.9825946 1.23844011-.8243353.82729805-1.2340049 1.82506963-1.2340049 2.99331473v6.1119777c0 .2607243-.0899274.4813371-.2747784.6618385-.1848509.1855153-.4046736.275766-.6594681.275766-.2597905 0-.4796133-.0902507-.6594682-.275766-.1848509-.1855153-.2747784-.4061281-.2747784-.6618385v-16.92701945z"/><path d="m38.4390008 16.8618384c-1.3139404 1.318663-2.8726833 1.9754875-4.6862208 1.9754875s-3.3572925-.6417827-4.6362611-1.9253482c-1.2789685-1.2835654-1.9184528-2.837883-1.9184528-4.6529248 0-1.8200557.6394843-3.36935931 1.9184528-4.65292477 1.2789686-1.28356546 2.8277196-1.92534819 4.6362611-1.92534819 1.8135375 0 3.3572925.64178273 4.6362611 1.92534819s1.9184529 2.83788297 1.9184529 4.65292477v5.6406685c0 .2607243-.0899275.4813371-.2747784.6618385-.184851.1855153-.4046737.275766-.6594682.275766-.2597905 0-.4796132-.0902507-.6594682-.275766-.1848509-.1855153-.2747784-.4061281-.2747784-.6618385zm-4.6862208-9.30584954c-1.2939565 0-2.403062.45626741-3.3123288 1.37381615-.9142626.91754875-1.368896 2.02562679-1.368896 3.32423399s.4546334 2.4116992 1.368896 3.324234c.9142627.9175487 2.0183723 1.3738161 3.3123288 1.3738161s2.4030621-.4562674 3.3123288-1.3738161c.9142627-.9175488 1.368896-2.0256268 1.368896-3.324234s-.4546333-2.41169917-1.368896-3.32423399c-.9092667-.91754874-2.0133763-1.37381615-3.3123288-1.37381615z"/><path d="m45.2335214 2.85292479c0 .32089137-.1149074.59665738-.344722.82729805-.2298147.23064067-.5045931.345961-.8243353.345961-.3197421 0-.5945205-.11532033-.8243352-.345961-.2298146-.23064067-.344722-.50640668-.344722-.82729805 0-.32089136.1149074-.59665738.344722-.82729805.2298147-.23064067.5045931-.345961.8243352-.345961.3197422 0 .5945206.11532033.8243353.345961.2298146.23064067.344722.50640669.344722.82729805zm-2.1082998 3.76044568c0-.26072423.0899275-.48133704.2747784-.66183844.1848509-.18551532.4046737-.27576601.6594682-.27576601.2597905 0 .4796132.09025069.6594681.27576601.184851.18551532.2747784.40612814.2747784.66183844v11.28635093c0 .2607243-.0899274.4813371-.2747784.6618385-.1848509.1855153-.4046736.275766-.6594681.275766-.2597905 0-.4796132-.0902507-.6594682-.275766-.1848509-.1855153-.2747784-.4061281-.2747784-.6618385z"/><path d="m47.8114424 6.61337047c0-.26072423.0899275-.48133704.2747784-.66183844.1848509-.18551532.4046736-.27576601.6594682-.27576601.2597905 0 .4796132.09025069.6594681.27576601.184851.18551532.2747784.40612814.2747784.66183844v.762117c1.1690572-1.13816156 2.5779211-1.70473538 4.2165996-1.70473538 1.6786462 0 3.1124899.59665738 4.3065269 1.78997214 1.1890411 1.19331477 1.7835617 2.63732587 1.7835617 4.32200557v6.1169916c0 .2607243-.0899275.4813371-.2747784.6618385-.1848509.1855153-.4046737.275766-.6594682.275766-.2597905 0-.4796132-.0902507-.6594682-.275766-.1848509-.1855153-.2747784-.4061281-.2747784-.6618385v-6.1119777c0-1.1682451-.4096696-2.16601668-1.2340048-2.99331473s-1.8185334-1.23844011-2.9825947-1.23844011c-1.1640612 0-2.1582594.41114206-2.9825947 1.23844011-.8243352.82729805-1.2340048 1.82506963-1.2340048 2.99331473v6.1119777c0 .2607243-.0899275.4813371-.2747784.6618385-.1848509.1855153-.4046736.275766-.6594682.275766-.2597905 0-.4796132-.0902507-.6594681-.275766-.184851-.1855153-.2747784-.4061281-.2747784-.6618385v-11.28635093z"/></g></g></g></svg>