<?xml version="1.0" encoding="utf-8"?>
<svg xmlns="http://www.w3.org/2000/svg"  width="540.2" height="63.5">
  <path d="M101.1 1.4l-8.8 15.3L83.5 32l-8.9-15.3-8.8-15.3h35.3z" fill="#0F0E9F"/>
  <path d="M59.8 1.4l-7.3 12.8-7.4 12.7-7.3-12.7-7.4-12.8h29.4z" fill="#28BDEB"/>
  <path d="M57 16.7l8.8-15.3 8.8 15.3L83.5 32l-8.9 15.2-8.8 15.3L57 47.2 48.2 32 57 16.7z" fill="#455CC7"/>
  <path d="M1 1.4l5.8 10.2 5.9 10.1 5.8-10.1 5.9-10.2H1zm36.8 12.8L30.4 1.4 23 14.2l-7.3 12.7L23 39.7l7.4 12.7 7.4-12.7 7.3-12.8-7.3-12.7z" fill="#70E5F9"/>
  <path d="M153.4 11.3l12.1 29.9 16.3-39.7h-4.6l-11.8 28.6-12-30.1-12 30.1-11.6-28.6h-4.6l16.1 39.7 12.1-29.9zM300 41.1h28.2v-3.5h-23.8V23.3h21.1v-3.6h-21.1V4.8h23.8V1.4H300v39.7zm78.4 0h5.1L375 29.6l-1.6-2.1 2.4-1c2.4-.9 4.2-2.4 5.7-4.6 1.4-2.2 2.1-4.6 2.1-7.5 0-1.9-.3-3.7-1-5.3-.6-1.6-1.5-3-2.6-4.1-1.1-1.1-2.5-2-4.1-2.6-1.6-.6-3.4-1-5.4-1h-17.8v39.7h4.4V27.2h11.3l.6.9c1.7 2.4 3.3 4.7 5 7 1.3 2 2.8 4 4.4 6zm-7.9-17.3H357v-19h13.5c1.8 0 3.4.4 4.6 1.1 1.1.7 2 1.6 2.7 2.7.6 1 1 2.1 1.2 3.2.2 1 .3 1.9.3 2.6 0 1.5-.3 2.9-.8 4s-1.2 2.1-2 2.9c-.8.8-1.8 1.4-2.9 1.8-1.1.5-2.1.7-3.1.7zm37 17.3h27.4v-3.4h-23.1V1.4h-4.4v39.7h.1zm48.6 0h28.2v-3.5h-23.8V23.3h21.1v-3.6h-21.1V4.8h23.8V1.4h-28.2v39.7zm63.6 0h4.4V26l.3-.5c1.1-1.9 2.4-4.1 3.9-6.5l8.9-14.4c.7-1.1 1.4-2.2 2-3.2h-5c-.7 1.1-1.4 2.3-2.1 3.5l-2.8 4.8c-1 1.6-1.9 3.2-2.9 4.8-1 1.6-1.9 3.1-2.8 4.5l-1.7 2.7-1.7-2.8c-1.8-3-3.6-6.1-5.5-9.3-1.7-2.8-3.3-5.6-4.9-8.3h-5.1c2.1 3.5 4.2 7 6.5 10.5 2.9 4.5 5.7 9.1 8.3 13.6l.3.5v15.2h-.1zm-287.9.1l-20-39.7-20.1 39.7h4.8l15.3-30.3 15.3 30.3h4.7zm9.7-39.7l20 39.7 20.1-39.7h-4.8l-15.3 30.3-15.3-30.3h-4.7z" fill="#0F0E9F"/>
</svg>
